<svg width="133" height="203" viewBox="0 0 133 203" fill="none" xmlns="http://www.w3.org/2000/svg">
<path opacity="0.1" d="M0.0797762 51.7415C0.0797762 51.7415 2.07978 11.4415 47.0798 1.44148C91.9798 -8.45852 118.98 36.5415 115.88 65.0415C114.48 77.5415 106.98 89.7414 107.68 98.1414C108.78 111.141 122.48 121.941 127.58 133.541C134.68 149.541 134.88 170.841 121.98 183.841C110.08 195.841 91.8797 199.841 75.6797 201.541C59.4797 203.241 42.0798 202.441 27.0798 195.741C11.8798 188.941 0.779776 173.841 0.579776 156.941C0.279776 137.341 17.3798 121.741 15.0798 101.841C13.7798 89.8414 -1.22022 80.9415 0.0797762 51.7415Z" fill="#002071"/>
</svg>
