<svg width="237" height="247" viewBox="0 0 237 247" fill="none" xmlns="http://www.w3.org/2000/svg">
<path opacity="0.1" d="M19.9986 24.5166C31.2986 15.7166 43.9985 8.5166 57.5985 4.1166C69.5985 0.316603 84.9985 -3.38339 95.6985 5.41661C118.199 23.8166 109.299 61.2166 163.099 37.7166C216.899 14.2166 220.999 30.0166 230.199 47.0166C239.399 64.0166 246.499 103.117 198.199 111.117C176.799 116.417 166.199 136.517 169.299 155.217C171.499 168.817 176.699 196.417 169.999 207.317C158.999 225.117 139.999 239.817 119.499 244.717C86.1986 252.817 26.0986 235.617 26.0986 193.417C26.0986 183.117 29.5986 173.117 34.4986 164.117C44.3986 146.417 68.4986 128.417 43.9986 107.117C31.4986 96.3166 16.2985 87.6166 6.39854 74.1166C-7.70146 54.7166 3.59858 37.3166 19.9986 24.5166Z" fill="#002071"/>
</svg>
