<svg width="106" height="38" viewBox="0 0 106 38" fill="none" xmlns="http://www.w3.org/2000/svg">
<g opacity="0.1">
<path d="M49.6023 37.8877C48.2487 37.8877 47.2335 36.8729 47.0643 35.6889C46.8951 34.1666 48.0795 32.8135 49.4331 32.8135C50.9559 32.8135 52.1403 34.1666 51.9711 35.6889C51.9711 36.8729 51.1251 37.7186 49.6023 37.8877Z" fill="#002071"/>
<path d="M12.547 4.39773C11.3625 4.39773 10.5165 3.7211 10.3473 2.53712C10.1781 1.18399 11.1933 0 12.547 0C13.7314 0 14.5774 0.845767 14.7466 1.86061C14.9158 3.0446 13.9006 4.22859 12.547 4.39773Z" fill="#002071"/>
<path d="M41.8189 34.5048C41.9882 35.5196 41.1421 36.5345 40.1269 36.7036C39.1117 36.8728 37.9273 36.1963 37.7581 35.1814C37.4197 33.9974 38.4349 32.6443 39.6193 32.6443C40.8038 32.6443 41.6497 33.49 41.8189 34.5048Z" fill="#002071"/>
<path d="M27.606 19.113C27.4368 20.1278 26.2524 20.9735 25.2372 20.8044C24.3912 20.6353 23.7144 19.6203 23.7144 18.9438C23.8836 17.9289 24.8988 17.0832 26.0832 17.2524C26.9292 17.4215 27.606 18.4364 27.606 19.113Z" fill="#002071"/>
<path d="M28.9596 0.676536C29.8056 0.676536 30.6516 1.52224 30.6516 2.36795C30.6516 3.38279 29.4672 4.3976 28.452 4.22846C27.606 4.05932 26.9292 3.04455 27.0984 2.19885C27.2676 1.184 28.1136 0.507395 28.9596 0.676536Z" fill="#002071"/>
<path d="M62.1231 28.0775C61.9539 28.9232 61.1078 29.5997 60.2618 29.5997C59.0774 29.5997 58.2314 28.4158 58.5698 27.4009C58.9082 26.5552 59.9235 25.8787 60.6003 26.0478C61.6155 26.3861 62.2923 27.401 62.1231 28.0775Z" fill="#002071"/>
<path d="M37.2505 10.9942C37.4197 11.8399 36.7429 12.6856 35.8969 12.8548C34.8817 13.1931 33.8665 12.3473 33.5281 11.3325C33.3589 10.4868 34.0356 9.64109 34.8816 9.47195C36.0661 9.30281 37.2505 9.97931 37.2505 10.9942Z" fill="#002071"/>
<path d="M105.439 18.2672C105.27 19.1129 104.424 19.7894 103.578 19.6203C102.732 19.6203 101.885 18.7746 101.885 17.9289C101.885 16.914 103.07 16.0683 104.085 16.2375C104.931 16.5758 105.608 17.4215 105.439 18.2672Z" fill="#002071"/>
<path d="M45.5413 20.6352C45.2028 21.65 44.0184 22.1575 43.0032 21.6501C42.1572 21.1427 41.8188 20.1277 42.3264 19.4512C42.6648 18.6055 43.68 18.2672 44.526 18.6055C45.372 18.7746 45.8797 19.7895 45.5413 20.6352Z" fill="#002071"/>
<path d="M38.6042 3.3827C38.6042 4.2284 37.7582 5.07411 36.9122 5.07411C35.897 5.07411 35.051 3.89014 35.2202 2.87529C35.3894 2.02959 36.4045 1.35305 37.2505 1.52219C38.0966 1.69133 38.7734 2.53699 38.6042 3.3827Z" fill="#002071"/>
<path d="M3.24098 18.2673C3.07177 19.113 2.22575 19.7896 1.37975 19.6204C0.533737 19.4513 -0.143101 18.6055 0.0261003 17.7598C0.195302 16.9141 1.04132 16.2376 1.88733 16.4067C2.90254 16.5758 3.41018 17.4216 3.24098 18.2673Z" fill="#002071"/>
<path d="M57.3856 4.05943C56.5396 3.89028 56.032 3.04456 56.032 2.02971C56.032 1.35315 56.878 0.845703 57.5548 0.845703C58.4008 0.845703 59.2468 1.69141 59.2468 2.53711C59.0776 3.55196 58.2316 4.22857 57.3856 4.05943Z" fill="#002071"/>
<path d="M33.0203 34.8432C33.0203 35.858 32.5127 36.5345 31.4975 36.7037C30.6515 36.8728 29.8055 36.1963 29.6363 35.1815C29.4671 34.3358 30.1439 33.49 31.1591 33.3208C32.1743 33.1517 33.0203 33.9974 33.0203 34.8432Z" fill="#002071"/>
<path d="M86.1498 29.0922C85.3038 29.0922 84.4578 28.2465 84.4578 27.4008C84.4578 26.386 85.6422 25.5403 86.6574 25.7094C87.5034 25.8785 88.1802 26.8935 88.011 27.57C87.6726 28.5849 86.9958 29.2614 86.1498 29.0922Z" fill="#002071"/>
<path d="M49.6023 2.87548C49.6023 3.55204 49.0947 4.22859 48.4179 4.22859C47.4027 4.22859 46.5566 3.55204 46.5566 2.87548C46.5566 2.02977 47.5719 1.35327 48.4179 1.35327C48.9255 1.52241 49.6023 2.19892 49.6023 2.87548Z" fill="#002071"/>
<path d="M22.3607 1.86075C22.5299 2.70645 21.684 3.55212 20.8379 3.72126C20.1611 3.72126 19.4843 3.21381 19.3151 2.53725C19.1459 1.69154 19.6535 0.67678 20.4995 0.507639C21.3455 0.338498 22.1915 0.845901 22.3607 1.86075Z" fill="#002071"/>
<path d="M95.4559 25.7095C96.3019 25.7095 97.1479 26.7243 96.9787 27.4009C96.8095 28.4157 95.9635 28.9231 95.1175 28.754C94.2715 28.5849 93.7639 27.7392 93.9331 26.7244C94.1023 26.217 94.9483 25.7095 95.4559 25.7095Z" fill="#002071"/>
<path d="M36.0661 19.7895C36.0661 20.6352 35.3893 21.481 34.5433 21.481C33.6973 21.481 32.8513 20.8044 32.8513 19.7895C32.8513 19.113 33.5281 18.4365 34.0357 18.2673C35.0509 18.2673 35.8969 18.9438 36.0661 19.7895Z" fill="#002071"/>
<path d="M61.7848 17.7598C62.6308 17.7598 63.3076 18.7747 63.3076 19.6204C63.3076 20.1278 62.4616 20.8044 61.7848 20.8044C61.108 20.8044 60.4312 20.1278 60.262 19.6204C60.262 18.6055 61.108 17.7598 61.7848 17.7598Z" fill="#002071"/>
<path d="M19.992 19.6204C19.8228 20.4661 18.8076 21.1427 17.9616 20.8044C17.2848 20.6352 16.7772 19.7895 16.9464 19.113C17.1156 18.4364 17.7924 17.7598 18.4692 17.7598C19.3152 17.9289 20.1612 18.9438 19.992 19.6204Z" fill="#002071"/>
<path d="M87.165 18.0981C87.165 18.7747 86.319 19.2822 85.6422 19.2822C84.9654 19.2822 84.2886 18.6056 84.2886 17.929C84.2886 17.2525 84.9654 16.4067 85.473 16.4067C86.319 16.5759 87.165 17.2524 87.165 18.0981Z" fill="#002071"/>
<path d="M64.8305 12.6857C63.9845 12.6857 62.9692 12.0092 62.9692 11.1634C62.9692 10.656 63.646 9.81028 64.3228 9.64114C65.1688 9.47199 66.1841 10.1486 66.0149 11.1634C66.0149 11.84 65.3381 12.6857 64.8305 12.6857Z" fill="#002071"/>
<path d="M89.3647 3.38279C89.3647 4.05936 88.8571 4.73596 88.1803 4.90511C87.5035 4.90511 86.8267 4.39766 86.6575 3.7211C86.6575 3.04453 87.1651 2.36799 87.8419 2.36799C88.6879 2.19885 89.3647 2.70623 89.3647 3.38279Z" fill="#002071"/>
<path d="M95.9636 3.89023C95.9636 4.5668 95.2868 5.07414 94.4408 5.07414C93.764 5.07414 93.2563 4.22849 93.2563 3.55193C93.2563 2.87536 93.9331 2.36792 94.7792 2.36792C95.6252 2.36792 96.1328 3.04453 95.9636 3.89023Z" fill="#002071"/>
<path d="M18.3 10.4867C18.3 11.1633 17.9616 11.8399 17.2847 11.8399C16.4387 11.8399 15.9312 11.5016 15.9312 10.825C15.9312 9.97934 16.2695 9.30273 16.9463 9.30273C17.7923 9.30273 18.3 9.64104 18.3 10.4867Z" fill="#002071"/>
<path d="M10.009 11.3324C10.009 11.8398 9.33218 12.6855 8.65537 12.6855C7.80937 12.8546 7.13257 12.009 7.13257 11.1633C7.13257 10.4867 7.80935 9.97925 8.48616 9.97925C9.16297 9.97925 10.009 10.6558 10.009 11.3324Z" fill="#002071"/>
<path d="M45.203 9.8103C45.8798 9.8103 46.3874 10.6559 46.3874 11.3325C46.3874 12.0091 45.7106 12.6856 45.0338 12.6856C44.357 12.6856 43.6802 12.0091 43.511 11.3325C43.511 10.6559 44.357 9.8103 45.203 9.8103Z" fill="#002071"/>
<path d="M10.6858 18.6055C10.8551 19.4513 10.0091 20.4661 9.16304 20.297C8.48624 20.297 7.80939 19.6204 7.64019 18.9439C7.47098 18.0981 8.31703 17.2524 9.16304 17.2524C10.0091 17.4216 10.6858 17.929 10.6858 18.6055Z" fill="#002071"/>
<path d="M18.4691 36.3654C17.7923 36.3654 17.2847 35.6889 17.2847 34.8432C17.2847 34.1666 17.9615 33.6592 18.8075 33.6592C19.4843 33.6592 20.1611 34.3358 19.9919 35.1815C19.8227 35.6889 19.1459 36.3654 18.4691 36.3654Z" fill="#002071"/>
<path d="M78.3664 35.6889C78.3664 36.3654 77.6896 36.8729 76.8436 36.8729C76.1668 36.8729 75.49 36.1962 75.49 35.5197C75.49 34.8431 76.1668 34.1665 76.8436 34.1665C77.6896 33.9974 78.5356 34.8432 78.3664 35.6889Z" fill="#002071"/>
<path d="M88.0109 36.3652C88.0109 37.0418 87.1649 37.5492 86.4881 37.5492C85.8113 37.5492 85.3037 36.8727 85.3037 36.027C85.3037 35.3505 86.1497 34.843 86.8265 34.843C87.5033 35.0122 88.1801 35.8578 88.0109 36.3652Z" fill="#002071"/>
<path d="M75.6592 3.55198C76.1668 3.04455 76.336 2.53711 76.8436 2.36797C77.3512 2.19883 77.8588 2.53715 78.1972 3.04458C78.5356 3.552 77.8588 4.56678 77.182 4.56678C76.6744 4.2285 76.336 3.89026 75.6592 3.55198Z" fill="#002071"/>
<path d="M27.6061 10.6558C27.7753 11.1632 26.9292 12.1781 26.2524 12.0089C25.7448 11.8398 25.2372 11.5015 25.068 11.1632C24.7296 10.6558 25.4065 9.64091 26.0833 9.64091C26.7601 9.47177 27.4369 9.81012 27.6061 10.6558Z" fill="#002071"/>
<path d="M80.9047 12.5164C80.0587 12.3472 79.551 11.5015 79.8894 10.825C80.0586 10.3175 80.5663 9.97925 81.0739 9.97925C81.9199 10.3175 82.2583 10.825 81.9199 11.5016C81.5815 12.009 81.0739 12.3472 80.9047 12.5164Z" fill="#002071"/>
<path d="M56.3703 12.1782C56.3703 12.8548 55.6935 13.3622 54.8475 13.3622C54.1707 13.3622 53.6631 12.8548 53.6631 11.8399C53.6631 11.1633 54.3399 10.656 55.1859 10.656C55.8627 10.656 56.3703 11.3325 56.3703 12.1782Z" fill="#002071"/>
<path d="M77.8589 19.2821C77.1821 19.4513 76.3361 18.6055 76.5053 18.0981C76.6745 17.5907 77.0129 17.0833 77.3513 16.745C77.8589 16.4067 78.8741 17.0833 78.8741 17.7598C79.0433 18.6055 78.7049 19.113 77.8589 19.2821Z" fill="#002071"/>
<path d="M96.3019 18.0981C96.3019 18.9438 95.9635 19.4513 95.1175 19.6204C94.2715 19.6204 93.7639 19.2821 93.7639 18.6055C93.7639 17.7598 94.1023 17.0833 94.7791 17.0833C95.7943 16.9142 96.3019 17.4216 96.3019 18.0981Z" fill="#002071"/>
<path d="M6.11735 26.5551C6.11735 27.5699 5.44056 28.0774 4.76376 28.0774C4.25615 28.0774 3.74854 27.5699 3.74854 27.0625C3.74854 26.3859 4.42532 25.7094 5.10213 25.8786C5.44053 25.8786 5.77895 26.2168 6.11735 26.5551Z" fill="#002071"/>
<path d="M21.6839 27.4008C21.3455 28.0773 20.4995 28.4157 19.9919 28.0774C19.3151 27.7391 18.9767 27.0625 19.3151 26.386C19.6535 25.7094 20.4995 25.3711 21.0072 25.7094C21.684 26.0476 22.0224 26.7242 21.6839 27.4008Z" fill="#002071"/>
<path d="M68.3837 25.8787C69.0605 25.8787 69.7373 26.5552 69.5681 27.2318C69.3989 27.9083 68.8913 28.4157 68.0453 28.2466C67.5376 28.0774 67.1992 27.7392 67.03 27.2318C67.03 26.7243 67.7069 25.8787 68.3837 25.8787Z" fill="#002071"/>
<path d="M67.876 34.3356C68.5528 34.1665 69.2296 34.843 69.2296 35.5195C69.2296 36.1961 68.722 36.8727 68.0452 36.8727C67.3684 37.0419 66.6916 36.3653 66.6916 35.6887C66.5224 35.0122 67.1992 34.5048 67.876 34.3356Z" fill="#002071"/>
<path d="M91.0566 10.9942C91.0566 11.6708 90.3798 12.1782 89.703 12.1782C89.0262 12.1782 88.5186 11.5017 88.6878 10.656C88.857 10.1486 89.1954 9.8103 89.703 9.8103C90.3798 9.8103 91.0566 10.4868 91.0566 10.9942Z" fill="#002071"/>
<path d="M53.1555 18.0981C53.4939 18.6056 54.0015 18.7747 54.1707 19.2822C54.3399 19.7896 53.8323 20.297 53.3247 20.297C52.6479 20.4661 51.8019 19.7896 52.1403 19.1131C52.3095 18.7748 52.8171 18.6056 53.1555 18.0981Z" fill="#002071"/>
<path d="M34.7123 26.8935C34.5431 27.2318 34.3739 27.7392 34.0355 27.9083C33.5279 28.2466 33.0203 27.9084 32.6819 27.5701C32.3435 27.0627 32.5127 26.3861 33.0203 26.2169C33.5279 25.7095 34.5431 26.0478 34.7123 26.8935Z" fill="#002071"/>
<path d="M67.5375 2.36814C67.5375 2.87556 67.1991 3.38299 66.5223 3.21385C66.1839 3.21385 65.8455 2.87558 65.8455 2.70644C65.6763 2.36816 66.0147 1.69158 66.5223 1.52244C67.0299 1.35329 67.5375 1.86072 67.5375 2.36814Z" fill="#002071"/>
<path d="M98.1632 12.0091C97.3172 11.84 96.9788 11.5017 97.148 10.8251C97.3172 10.1485 97.6556 9.81024 98.1632 9.97938C98.6708 10.1485 99.1784 10.4868 99.0092 10.9942C98.84 11.5016 98.3324 11.84 98.1632 12.0091Z" fill="#002071"/>
<path d="M72.2754 19.4512C72.1062 19.7894 71.937 20.1278 71.5986 20.4661C71.2602 20.8043 70.4141 20.2969 70.2449 19.9587C69.9065 19.4512 70.4141 18.6055 71.0909 18.4363C71.4293 18.2672 72.1062 18.7746 72.2754 19.4512Z" fill="#002071"/>
<path d="M13.7315 27.57C13.0547 27.7391 12.5471 28.0774 12.2087 28.0774C11.7011 28.0774 11.701 27.4008 11.8702 26.7243C12.0394 26.386 12.3778 26.0477 12.7162 26.386C13.0546 26.5551 13.3931 26.8934 13.7315 27.57Z" fill="#002071"/>
<path d="M27.7753 26.8935C27.6061 27.57 27.2677 27.9083 26.7601 27.7392C26.2525 27.57 25.7448 27.2317 25.914 26.5552C25.914 26.0478 26.4217 25.7095 26.9293 25.7095C27.6061 25.8786 27.9445 26.3861 27.7753 26.8935Z" fill="#002071"/>
<path d="M76.8438 27.57C77.1822 27.0626 77.1821 26.7242 77.5205 26.5551C78.0282 26.2168 78.5358 26.7243 78.5358 27.2317C78.5358 27.4008 78.1973 27.9082 78.0281 27.9082C77.6897 28.0773 77.1822 27.7391 76.8438 27.57Z" fill="#002071"/>
<path d="M50.6173 29.2613C49.7713 29.0922 49.4329 28.5847 49.6021 28.0773C49.7713 27.4007 50.1097 27.0624 50.7865 27.2316C51.4633 27.4007 51.8017 27.9082 51.6325 28.4156C51.2941 28.7539 50.9557 29.0922 50.6173 29.2613Z" fill="#002071"/>
<path d="M60.0928 36.5345C59.416 36.3654 59.0776 36.027 59.0776 35.3505C59.2468 34.8431 59.5852 34.5047 60.0928 34.6739C60.7696 34.843 61.108 35.1814 60.9388 35.6888C60.7696 36.0271 60.4312 36.3654 60.0928 36.5345Z" fill="#002071"/>
<path d="M42.6648 27.0625C42.834 27.4008 43.0033 27.5699 43.0033 27.9082C43.0033 28.2465 42.6648 28.5848 42.4956 28.5848C42.1572 28.5848 41.8188 28.4156 41.6496 28.2465C41.4804 28.0774 41.4804 27.5699 41.6496 27.4008C41.988 27.0625 42.3264 27.0625 42.6648 27.0625Z" fill="#002071"/>
<path d="M73.6289 10.825C73.9673 11.1632 74.1365 11.5015 73.7981 11.6707C73.6289 11.8398 73.1213 12.009 72.9521 12.009C72.6137 11.8398 72.4444 11.5015 72.7828 11.1633C72.952 10.9941 73.4597 10.9941 73.6289 10.825Z" fill="#002071"/>
</g>
</svg>
