<svg width="57" height="33" viewBox="0 0 57 33" fill="none" xmlns="http://www.w3.org/2000/svg">
<g opacity="0.1">
<path d="M46.1921 18.0213C43.9925 18.0213 41.962 17.6831 40.1008 17.1756C38.4088 16.8373 36.7168 16.3299 35.194 15.9916C32.3175 15.3151 29.6103 15.4842 26.9031 16.6682C26.0571 17.0065 25.2111 17.3448 24.3651 17.683C21.827 18.867 19.1198 18.8671 16.4125 18.3596C15.5665 18.1905 14.7206 17.8522 13.7054 17.683C12.8593 17.5139 12.0133 17.1757 10.9981 17.0065C9.3061 16.6682 7.61408 16.6682 5.92206 17.0065C4.06084 17.3448 2.19959 17.8522 0.338373 17.8522C-3.09868e-05 17.8522 0 17.6831 0 17.5139C0 17.3448 1.03247e-05 17.3447 0.169212 17.3447C0.338414 17.1756 0.507595 17.1757 0.676797 17.0065C1.0152 16.8374 1.1844 16.8374 1.52281 16.6682C2.36882 16.4991 3.04561 16.3299 3.89162 15.9916C6.76805 14.8076 9.81371 15.1459 12.6901 15.6533C13.3669 15.8225 14.0437 15.9917 14.7205 16.1608C16.2433 16.6682 17.597 16.6682 19.1198 16.6682C20.4734 16.6682 21.9962 16.499 23.1806 15.9916C24.0266 15.6533 24.8726 15.3151 25.7186 14.9768C26.9031 14.4694 28.2567 14.131 29.4411 13.9619C30.7947 13.7928 31.9791 13.6236 33.3327 13.9619C35.5324 14.4693 37.9012 14.9768 40.1008 15.4842C42.808 16.1608 45.6845 16.3299 48.3917 15.9916C50.4222 15.8225 52.2834 15.1459 54.1446 14.3002C54.3138 14.3002 54.483 14.4694 54.6522 14.4694C54.6522 14.4694 54.6522 14.6385 54.6522 14.8076C54.483 14.9768 54.3138 15.3151 54.1446 15.4842C53.637 15.8225 52.9602 16.3299 52.2834 16.499C50.4221 17.683 48.2225 18.0213 46.1921 18.0213Z" fill="#002071"/>
<path d="M12.1825 7.1963C13.7053 7.1963 15.3973 7.53465 16.9202 8.21121C17.2586 8.38035 17.4278 8.38037 17.7662 8.54951C20.8118 10.0718 24.1958 10.0718 27.4106 9.39522C29.2719 9.05694 31.1331 8.54947 32.8251 7.87291C35.0247 7.0272 37.2244 6.51976 39.5932 6.6889C40.7776 6.6889 41.7928 6.85802 42.808 7.1963C43.9924 7.53459 45.3461 7.87293 46.5305 8.21121C49.2377 8.88778 52.1141 9.22606 54.8214 8.21121C55.329 8.04207 55.8366 8.04201 56.3442 8.04201C56.5134 8.04201 56.6826 8.21117 56.6826 8.38031C56.8518 8.54945 56.6826 8.71857 56.5134 8.88771C55.6674 9.226 54.8214 9.56428 53.9753 9.73342C52.4525 10.2408 50.9297 10.41 49.2377 10.0717C47.3765 9.73344 45.5152 9.39518 43.654 8.71861C40.6084 7.70377 37.732 8.04201 34.8556 8.88771C34.1788 9.05686 33.3327 9.39514 32.6559 9.73342C30.6255 10.5791 28.5951 11.0865 26.5646 11.4248C23.8574 11.9323 21.1502 11.594 18.6122 10.5791C18.1046 10.41 17.4278 10.0718 16.9202 9.90262C14.5513 8.71864 12.0133 8.54943 9.30607 8.88771C7.61406 9.226 5.92204 9.22608 4.23002 9.39522C4.06082 9.39522 3.89158 9.22602 3.72238 9.22602L3.55322 9.05692C3.55322 8.88778 3.55322 8.88776 3.55322 8.71861C6.42965 7.70377 9.13684 7.1963 12.1825 7.1963Z" fill="#002071"/>
<path d="M50.0838 25.2945C49.7454 25.2945 48.7301 25.1254 47.7149 24.7871C46.6997 24.618 45.8537 24.2797 44.8385 23.9414C42.9773 23.434 41.116 23.6031 39.2548 24.1105C38.0704 24.4488 36.886 24.7871 35.8708 25.1254C32.9943 25.9711 30.1179 25.9711 27.2415 25.2945C26.5647 25.1254 25.8879 24.9563 25.2111 24.618C23.519 24.1106 21.9962 23.7723 20.3042 23.434C18.2738 23.0957 16.2434 23.2648 14.3822 23.9414C13.8746 24.1106 13.1977 24.4489 12.6901 24.618C10.1521 25.6329 7.61409 25.802 5.07606 25.1254C3.55324 24.7871 1.86121 24.4489 0.507591 23.7723C0.338389 23.7723 0.338379 23.4339 0.338379 23.2648L0.507591 23.0957C0.676793 23.0957 0.846026 22.9266 1.01523 22.9266C2.03044 23.0957 3.04563 23.0957 4.06084 23.2648C5.07605 23.4339 6.09128 23.6032 6.93729 23.7723C8.79851 23.9415 10.4905 23.7723 12.1825 23.0957C12.5209 22.9266 12.6901 22.9265 13.0285 22.7574C15.7357 21.5734 18.443 21.5735 21.3194 22.0809C22.8423 22.4192 24.1958 22.7574 25.7187 23.0957C26.7339 23.2648 27.5799 23.6031 28.5951 23.9414C30.2871 24.2797 31.9791 24.2797 33.6712 23.9414C35.0248 23.6031 36.3784 23.2649 37.732 22.9266C40.6084 21.9118 43.6541 21.9118 46.5305 22.9266C47.7149 23.2649 49.0685 23.7723 50.2529 23.7723C51.9449 23.7723 53.637 23.6031 55.1598 22.7574C55.329 22.5883 55.6674 22.5883 55.6674 22.9266C55.6674 23.0957 55.6674 23.2649 55.4982 23.434C55.329 23.6031 55.1598 23.7723 55.1598 23.7723C54.3138 24.4489 53.2986 24.7871 52.1141 24.7871C51.7757 25.2945 51.2682 25.2945 50.0838 25.2945Z" fill="#002071"/>
<path d="M51.2682 3.6444C50.9298 3.6444 50.2529 3.47524 49.4069 3.30609C48.2225 2.96781 46.8689 2.62957 45.6845 2.29129C44.6693 1.95301 43.4849 1.61472 42.4697 1.44558C40.6085 1.1073 38.9164 1.10726 37.0552 1.61468C35.8708 1.95297 34.8556 2.29127 33.6712 2.79869C31.4716 3.6444 29.272 4.15182 27.0723 4.4901C25.7187 4.65924 24.3651 4.65929 22.8423 4.321C21.8271 3.98272 20.6427 3.81358 19.6275 3.4753C16.0742 1.95303 12.6902 1.95299 8.96771 2.79869C8.12171 2.96783 7.44491 3.13693 6.5989 2.96779L6.42969 2.79869C6.42969 2.62955 6.5989 2.46043 6.5989 2.29129C6.7681 2.12215 6.93728 1.95299 7.10648 1.95299C10.8289 0.599858 14.5514 0.261555 18.2738 1.61468C19.1198 1.95297 19.9658 2.12211 20.8118 2.46039C23.1807 3.30609 25.7187 3.30612 28.2567 2.79869C29.7795 2.46041 31.1332 2.12211 32.656 1.61468C33.6712 1.2764 34.6864 0.938161 35.8708 0.599878C38.2396 -0.0766861 40.6085 -0.245889 42.9773 0.430675C44.8385 0.938099 46.6997 1.44556 48.5609 1.95299C49.2377 2.12213 49.9146 2.29129 50.5914 2.29129C52.6218 2.46043 54.6522 2.46045 56.3442 0.938181C56.5134 0.938181 56.6827 0.938181 56.8519 0.938181C56.8519 1.10732 56.8519 1.27644 56.8519 1.44558C56.5135 1.78387 56.175 2.12211 55.8366 2.46039C54.3138 3.30609 53.2986 3.6444 51.2682 3.6444Z" fill="#002071"/>
<path d="M54.9906 31.0452C54.8214 31.3835 54.6521 31.5526 54.4829 31.7217C53.2985 32.3983 52.1141 32.5675 50.7605 32.2292C49.7453 32.0601 48.8993 31.7218 47.8841 31.3835C46.8688 31.0452 45.8536 30.7069 44.6692 30.5378C43.1464 30.1995 41.6236 30.1995 40.27 30.7069C39.424 31.0452 38.578 31.2143 37.7319 31.5526C35.5323 32.2292 33.3327 32.2292 31.3023 31.5526C28.7643 30.876 26.2262 30.5377 23.519 30.876C22.673 30.876 21.9962 31.0452 21.1502 30.7069C20.981 30.7069 20.981 30.5378 20.8118 30.5378C20.981 30.3687 20.981 30.1994 21.1502 30.0303C24.1958 29.1846 27.2414 29.0155 30.2871 30.0303C30.7947 30.1994 31.4715 30.3687 31.9791 30.5378C33.5019 30.8761 35.0247 30.8761 36.3784 30.5378C37.2244 30.3687 38.0704 30.1995 38.9164 29.8612C41.4544 29.0155 43.8232 29.1846 46.192 30.0303C46.8688 30.3686 47.7149 30.5377 48.3917 30.876C50.2529 31.7217 52.1141 31.8909 53.9753 31.2143C54.4829 31.0452 54.8214 31.0452 54.9906 31.0452Z" fill="#002071"/>
</g>
</svg>
