<svg width="633" height="215" viewBox="0 0 633 215" fill="none" xmlns="http://www.w3.org/2000/svg">
<g filter="url(#filter0_d_95_24)">
<g clip-path="url(#clip0_95_24)">
<path d="M372 121.688V75.75H353.25V57H231.375V66.375H222V94.5H231.375V103.875H353.25V85.125H362.625V114.187L287.625 123.562V141.375H278.25V149.812C278.25 149.812 282.938 149.813 282.938 158.25C282.938 166.688 278.25 163.875 278.25 172.313V198.563C278.25 198.563 278.25 207 292.312 207C306.375 207 306.375 198.563 306.375 198.563V172.313C306.375 163.875 301.688 165.75 301.688 158.25C301.688 150.75 306.375 149.812 306.375 149.812V141.375H297V131.063L372 121.688Z" fill="#1B72B1"/>
<rect x="232.5" y="58.5" width="120" height="16.5" fill="#002071"/>
</g>
<rect x="231" width="123" height="57" fill="#002071"/>
</g>
<path d="M387.9 100V28.8H402.4L428.9 67.6H422.6L449 28.8H463.5V100H443.7V61.6L446.6 62.4L432.1 83.2H419.3L404.9 62.4L407.7 61.6V100H387.9ZM505.202 101.2C498.936 101.2 493.469 99.9333 488.802 97.4C484.136 94.8 480.502 91.2333 477.902 86.7C475.302 82.1667 474.002 76.9667 474.002 71.1V28.8H494.002V72.9C494.002 75.1667 494.502 77.1 495.502 78.7C496.502 80.3 497.836 81.5333 499.502 82.4C501.236 83.2 503.136 83.6 505.202 83.6C507.336 83.6 509.202 83.2 510.802 82.4C512.469 81.5333 513.769 80.3333 514.702 78.8C515.636 77.2 516.102 75.2667 516.102 73V28.8H536.202V71.2C536.202 77.0667 534.902 82.2667 532.302 86.8C529.769 91.2667 526.169 94.8 521.502 97.4C516.902 99.9333 511.469 101.2 505.202 101.2ZM568.908 101.2C562.841 101.2 557.541 100.333 553.008 98.6C548.541 96.8 544.408 93.9667 540.608 90.1L553.108 77.6C555.708 80.0667 558.441 81.9667 561.308 83.3C564.174 84.5667 567.241 85.2 570.508 85.2C573.241 85.2 575.308 84.8 576.708 84C578.108 83.1333 578.808 81.9667 578.808 80.5C578.808 79.0333 578.208 77.8333 577.008 76.9C575.808 75.9 574.208 75.0333 572.208 74.3C570.274 73.5 568.108 72.7 565.708 71.9C563.374 71.1 561.041 70.1333 558.708 69C556.374 67.8667 554.208 66.5 552.208 64.9C550.274 63.2333 548.708 61.2 547.508 58.8C546.308 56.3333 545.708 53.3333 545.708 49.8C545.708 45.2 546.808 41.2333 549.008 37.9C551.208 34.5667 554.308 32.0333 558.308 30.3C562.308 28.5 567.008 27.6 572.408 27.6C577.741 27.6 582.674 28.4667 587.208 30.2C591.808 31.8667 595.608 34.2667 598.608 37.4L586.008 49.9C583.808 47.7667 581.608 46.2 579.408 45.2C577.208 44.1333 574.808 43.6 572.208 43.6C570.141 43.6 568.474 43.9333 567.208 44.6C566.008 45.2667 565.408 46.2667 565.408 47.6C565.408 49 566.008 50.1667 567.208 51.1C568.408 51.9667 569.974 52.7667 571.908 53.5C573.908 54.2333 576.074 55 578.408 55.8C580.808 56.6 583.174 57.5667 585.508 58.7C587.841 59.7667 589.974 61.1667 591.908 62.9C593.908 64.5667 595.508 66.6667 596.708 69.2C597.908 71.7333 598.508 74.8 598.508 78.4C598.508 85.6667 595.908 91.3 590.708 95.3C585.574 99.2333 578.308 101.2 568.908 101.2Z" fill="#002071"/>
<path d="M41.1 101.2C35.6333 101.2 30.5333 100.3 25.8 98.5C21.1333 96.6333 17.0333 94.0333 13.5 90.7C9.96667 87.3667 7.2 83.4667 5.2 79C3.26667 74.4667 2.3 69.5667 2.3 64.3C2.3 58.9667 3.26667 54.0667 5.2 49.6C7.2 45.1333 9.93333 41.2667 13.4 38C16.9333 34.7333 21.0333 32.2 25.7 30.4C30.3667 28.5333 35.4333 27.6 40.9 27.6C46.4333 27.6 51.5 28.4667 56.1 30.2C60.7 31.9333 64.7 34.3333 68.1 37.4L54.8 50.8C53.2 49.0667 51.2333 47.7 48.9 46.7C46.6333 45.7 43.9667 45.2 40.9 45.2C38.2333 45.2 35.7667 45.6333 33.5 46.5C31.3 47.3667 29.4 48.6333 27.8 50.3C26.2 51.9667 24.9333 54 24 56.4C23.1333 58.7333 22.7 61.3667 22.7 64.3C22.7 67.3 23.1333 70 24 72.4C24.9333 74.7333 26.2 76.7333 27.8 78.4C29.4 80.0667 31.3 81.3667 33.5 82.3C35.7667 83.1667 38.2333 83.6 40.9 83.6C43.9 83.6 46.5667 83.1333 48.9 82.2C51.3 81.2667 53.3667 79.9 55.1 78.1L68.5 91.5C64.9667 94.5667 61 96.9667 56.6 98.7C52.2 100.367 47.0333 101.2 41.1 101.2ZM75.4313 100V28.8H95.4313V100H75.4313ZM118.431 100V28.8H138.431V100H118.431ZM86.3313 72V55.4H126.231V72H86.3313ZM166.436 71.6V57.8H178.536C181.269 57.8 183.336 57.1333 184.736 55.8C186.203 54.4667 186.936 52.7 186.936 50.5C186.936 48.3 186.203 46.5333 184.736 45.2C183.336 43.8667 181.269 43.2 178.536 43.2H166.436V28.8H181.736C186.669 28.8 191.003 29.7 194.736 31.5C198.469 33.3 201.403 35.8 203.536 39C205.669 42.2 206.736 45.9333 206.736 50.2C206.736 54.4667 205.636 58.2 203.436 61.4C201.303 64.6 198.303 67.1 194.436 68.9C190.569 70.7 186.003 71.6 180.736 71.6H166.436ZM150.236 100V28.8H170.236V100H150.236ZM188.636 100L169.236 69.6L187.236 65.7L211.336 100H188.636Z" fill="#002071"/>
<defs>
<filter id="filter0_d_95_24" x="218" y="0" width="158" height="215" filterUnits="userSpaceOnUse" color-interpolation-filters="sRGB">
<feFlood flood-opacity="0" result="BackgroundImageFix"/>
<feColorMatrix in="SourceAlpha" type="matrix" values="0 0 0 0 0 0 0 0 0 0 0 0 0 0 0 0 0 0 127 0" result="hardAlpha"/>
<feOffset dy="4"/>
<feGaussianBlur stdDeviation="2"/>
<feComposite in2="hardAlpha" operator="out"/>
<feColorMatrix type="matrix" values="0 0 0 0 0 0 0 0 0 0 0 0 0 0 0 0 0 0 0.25 0"/>
<feBlend mode="normal" in2="BackgroundImageFix" result="effect1_dropShadow_95_24"/>
<feBlend mode="normal" in="SourceGraphic" in2="effect1_dropShadow_95_24" result="shape"/>
</filter>
<clipPath id="clip0_95_24">
<rect width="150" height="150" fill="white" transform="translate(222 57)"/>
</clipPath>
</defs>
</svg>
